<?xml version="1.0" standalone="no"?>
<!DOCTYPE svg PUBLIC "-//W3C//DTD SVG 20010904//EN"
 "http://www.w3.org/TR/2001/REC-SVG-20010904/DTD/svg10.dtd">
<svg version="1.0" xmlns="http://www.w3.org/2000/svg"
 width="1020.000000pt" height="1020.000000pt" viewBox="0 0 1020.000000 1020.000000"
 preserveAspectRatio="xMidYMid meet">

<g transform="translate(0.000000,1020.000000) scale(0.100000,-0.100000)"
fill="#000000" stroke="none">
<path d="M8065 9353 c-635 -29 -1154 -152 -1613 -382 -467 -234 -799 -586
-931 -989 -49 -148 -49 -141 10 -208 28 -33 76 -94 107 -137 l55 -79 51 104
c74 148 118 211 220 314 107 107 187 155 307 185 232 59 477 -51 590 -265 29
-54 45 -72 89 -99 73 -43 120 -129 120 -218 0 -71 -11 -79 -67 -51 -66 34
-187 55 -271 48 -136 -11 -229 -71 -277 -178 -28 -63 -28 -65 -36 -343 -10
-374 -35 -566 -100 -763 -12 -35 -19 -65 -17 -67 9 -9 232 37 318 65 269 90
456 212 614 400 261 311 391 675 526 1465 59 349 82 462 125 632 66 258 135
421 220 523 36 43 41 51 28 48 -5 -1 -35 -3 -68 -5z"/>
<path d="M2629 8786 c-3 -3 -48 -6 -102 -7 -53 -1 -97 -3 -97 -6 0 -2 30 -41
67 -86 205 -252 319 -482 551 -1107 175 -472 235 -611 340 -785 109 -182 268
-352 429 -459 110 -73 292 -154 421 -187 108 -28 306 -59 374 -59 31 0 59 -4
62 -9 9 -14 -128 -110 -239 -167 -177 -91 -359 -148 -820 -258 -356 -85 -553
-151 -800 -271 -196 -96 -358 -199 -535 -342 -150 -122 -203 -173 -175 -173
10 0 64 -16 120 -35 390 -133 783 -465 955 -805 l32 -64 20 39 c111 219 311
488 494 665 283 273 623 447 1239 633 273 83 292 90 409 148 467 235 657 678
535 1249 -42 192 -143 460 -246 649 -122 224 -344 510 -509 657 -405 358 -911
595 -1519 709 -178 33 -258 43 -485 60 -182 14 -511 21 -521 11z"/>
<path d="M3880 3539 c-91 -15 -206 -78 -282 -155 -111 -112 -158 -228 -158
-394 0 -165 44 -280 149 -392 204 -217 549 -222 760 -11 112 112 163 237 164
402 0 150 -38 256 -132 369 -117 141 -316 213 -501 181z m237 -255 c132 -81
183 -297 109 -459 -48 -106 -110 -151 -219 -162 -127 -12 -239 50 -288 159
-21 46 -24 68 -24 164 0 107 1 113 35 179 59 116 132 158 262 152 64 -3 85 -9
125 -33z"/>
<path d="M4787 3523 c-11 -10 -8 -700 3 -776 26 -176 135 -279 327 -307 223
-33 408 52 474 216 23 58 24 64 27 467 l3 408 -118 -3 -118 -3 -5 -375 c-6
-416 -6 -419 -73 -461 -27 -17 -46 -19 -114 -17 -71 3 -85 6 -108 28 -60 56
-60 52 -63 458 l-3 372 -113 0 c-62 0 -116 -3 -119 -7z"/>
<path d="M5890 2990 l0 -540 115 0 115 0 0 335 c0 194 4 335 9 335 5 0 58 -75
117 -167 59 -93 139 -217 179 -278 39 -60 87 -136 106 -167 l34 -57 118 -1
117 0 0 540 0 540 -115 0 -115 0 0 -336 c0 -260 -3 -335 -12 -332 -7 3 -107
153 -223 334 l-211 329 -117 3 -117 3 0 -541z"/>
</g>
</svg>
